<svg xmlns="http://www.w3.org/2000/svg" width="182" height="36" fill="none">
    <circle cx="18" cy="18" r="18" fill="#85AA9F" />
    <path fill="#FCFCFC" fill-rule="evenodd"
        d="M17.95 16.667c5.284-3.985 5.517-6.4 0-10.667-5.622 4.358-4.897 6.668 0 10.667Zm-1.283 1.383c-3.985-5.283-6.4-5.516-10.667 0 4.358 5.622 6.668 4.898 10.667 0Zm13.333 0c-3.985-5.283-6.4-5.516-10.667 0 4.358 5.622 6.668 4.898 10.667 0ZM17.95 30c5.284-3.985 5.517-6.4 0-10.667-5.622 4.358-4.897 6.668 0 10.667Z"
        clip-rule="evenodd" />
    <path fill="#121417"
        d="m56.23 24-4.086-12.6h2.484l3.078 10.134h.162L60.946 11.4h2.484L59.326 24H56.23Zm12.059.162c-2.88 0-4.95-1.962-4.95-4.716v-.252c0-2.754 2.07-4.716 4.95-4.716h.144c2.88 0 4.95 1.962 4.95 4.716v.252c0 2.754-2.07 4.716-4.95 4.716h-.144Zm.018-1.764h.108c1.53 0 2.646-1.242 2.646-2.988v-.18c0-1.746-1.098-2.988-2.646-2.988h-.108c-1.53 0-2.628 1.242-2.628 2.988v.18c0 1.746 1.098 2.988 2.628 2.988Zm11.439 1.746c-2.826 0-4.77-1.944-4.77-4.698v-.288c0-2.718 2.016-4.662 4.734-4.662h.108c1.818 0 3.204.828 4.032 2.142l-1.656 1.098c-.504-.954-1.278-1.458-2.34-1.458H79.8c-1.548 0-2.502 1.098-2.502 2.952v.18c0 1.782 1.062 2.916 2.592 2.916h.09c1.08 0 1.836-.576 2.322-1.458l1.62 1.206c-.864 1.278-2.232 2.07-4.05 2.07h-.126Zm8.646.036c-1.944 0-3.276-1.134-3.276-2.79v-.126c0-1.998 1.89-3.042 5.652-3.042h.756v-.414c0-.918-.702-1.512-1.944-1.512h-.054c-.972 0-2.106.36-3.042.954l-.918-1.62a7.814 7.814 0 0 1 4.086-1.188h.108c2.232 0 3.87 1.17 3.87 3.402v4.23c0 .648.144 1.314.324 1.926H91.83a5.412 5.412 0 0 1-.252-1.116 4.469 4.469 0 0 1-3.186 1.296Zm.45-1.8c1.044 0 2.034-.45 2.682-1.152v-1.566h-.63c-2.466 0-3.618.504-3.618 1.494v.072c0 .666.63 1.152 1.566 1.152Zm12.833 1.782c-1.35 0-2.52-.522-3.313-1.404a5.773 5.773 0 0 1-.27 1.242H96.33V11.04h2.232v4.662c.773-.774 1.854-1.224 3.114-1.224h.09c2.592 0 4.482 1.944 4.482 4.608v.468c0 2.664-1.89 4.608-4.482 4.608h-.09Zm-.504-1.782h.144c1.548 0 2.61-1.188 2.61-2.862v-.396c0-1.674-1.062-2.862-2.61-2.862h-.144c-1.549 0-2.61 1.188-2.61 2.862v.396c0 1.674 1.061 2.862 2.61 2.862Zm7.378 1.62V11.4h4.806c2.484 0 4.194 1.278 4.194 3.15v.126c0 1.08-.468 1.944-1.512 2.61 1.386.576 2.142 1.71 2.142 3.096v.108c0 2.124-1.692 3.51-4.302 3.51h-5.328Zm2.268-7.308h2.484c1.206 0 1.926-.648 1.926-1.62v-.108c0-.936-.684-1.53-1.89-1.53h-2.52v3.258Zm0 5.274h2.934c1.278 0 2.07-.648 2.07-1.674v-.09c0-1.062-.81-1.728-2.106-1.728h-2.898v3.492Zm12.673 2.214c-2.142 0-3.312-1.278-3.312-3.546V14.64h2.232v5.526c0 1.332.576 2.07 1.818 2.07h.036c1.476 0 2.448-.99 2.448-2.574V14.64h2.232V24h-1.764a5.881 5.881 0 0 1-.27-1.404 4.347 4.347 0 0 1-3.384 1.584h-.036Zm9.251-10.998c-.774 0-1.314-.486-1.314-1.188s.54-1.224 1.314-1.224c.792 0 1.35.522 1.35 1.224s-.558 1.188-1.35 1.188ZM131.643 24v-9.36h2.232V24h-2.232Zm5.097 0V11.04h2.232V24h-2.232Zm8.9.162c-2.61 0-4.482-1.944-4.482-4.716v-.252c0-2.772 1.872-4.716 4.482-4.716h.09c1.26 0 2.34.45 3.114 1.242v-4.68h2.232V24h-1.764a6.207 6.207 0 0 1-.27-1.26c-.81.9-1.962 1.422-3.312 1.422h-.09Zm.45-1.782h.144c1.548 0 2.61-1.188 2.61-2.97v-.18c0-1.782-1.062-2.97-2.61-2.97h-.144c-1.548 0-2.61 1.188-2.61 2.97v.18c0 1.782 1.062 2.97 2.61 2.97Zm11.95 1.782c-2.844 0-4.824-1.908-4.824-4.662v-.252c0-2.754 2.034-4.77 4.788-4.77h.108c2.592 0 4.464 1.8 4.464 4.32v1.206h-7.146v.018c.162 1.35 1.242 2.268 2.754 2.268h.09c1.152 0 2.196-.522 2.736-1.206l1.242 1.35c-.882 1.062-2.502 1.728-4.05 1.728h-.162Zm-2.556-5.652h4.968c-.108-1.332-1.062-2.286-2.43-2.286h-.018c-1.296 0-2.268.9-2.52 2.286ZM164.76 24v-9.36h1.764c.126.36.252.918.27 1.332.72-.828 1.782-1.332 3.078-1.332h.216v2.16a1.654 1.654 0 0 0-.594-.108c-1.62 0-2.502.9-2.502 2.34V24h-2.232Z" />
</svg>