<svg xmlns="http://www.w3.org/2000/svg" width="214" height="40" fill="none">
    <circle cx="20" cy="20" r="20" fill="#85AA9F" />
    <path fill="#FCFCFC" fill-rule="evenodd"
        d="M20.443 19c5.944-4.483 6.206-7.2 0-12-6.325 4.902-5.51 7.501 0 12ZM19 20.557c-4.483-5.944-7.2-6.206-12 0 4.902 6.325 7.501 5.51 12 0Zm15 0c-4.483-5.944-7.2-6.206-12 0 4.902 6.325 7.501 5.51 12 0ZM20.443 34c5.944-4.483 6.206-7.2 0-12-6.325 4.902-5.51 7.501 0 12Z"
        clip-rule="evenodd" />
    <path fill="#121417"
        d="m61.17 28-4.994-15.4h3.036l3.762 12.386h.198L66.934 12.6h3.036L64.954 28H61.17Zm14.739.198c-3.52 0-6.05-2.398-6.05-5.764v-.308c0-3.366 2.53-5.764 6.05-5.764h.176c3.52 0 6.05 2.398 6.05 5.764v.308c0 3.366-2.53 5.764-6.05 5.764h-.176Zm.022-2.156h.132c1.87 0 3.234-1.518 3.234-3.652v-.22c0-2.134-1.342-3.652-3.234-3.652h-.132c-1.87 0-3.212 1.518-3.212 3.652v.22c0 2.134 1.342 3.652 3.212 3.652Zm13.98 2.134c-3.454 0-5.83-2.376-5.83-5.742v-.352c0-3.322 2.464-5.698 5.786-5.698H90c2.222 0 3.916 1.012 4.928 2.618l-2.024 1.342c-.616-1.166-1.562-1.782-2.86-1.782h-.066c-1.892 0-3.058 1.342-3.058 3.608v.22c0 2.178 1.298 3.564 3.168 3.564h.11c1.32 0 2.244-.704 2.838-1.782l1.98 1.474c-1.056 1.562-2.728 2.53-4.95 2.53h-.154Zm10.568.044c-2.376 0-4.004-1.386-4.004-3.41v-.154c0-2.442 2.31-3.718 6.908-3.718h.924v-.506c0-1.122-.858-1.848-2.376-1.848h-.066c-1.188 0-2.574.44-3.718 1.166l-1.122-1.98c1.408-.88 3.168-1.452 4.994-1.452h.132c2.728 0 4.73 1.43 4.73 4.158v5.17c0 .792.176 1.606.396 2.354h-2.596c-.132-.352-.242-.858-.308-1.364-.968.968-2.332 1.584-3.894 1.584Zm.55-2.2c1.276 0 2.486-.55 3.278-1.408v-1.914h-.77c-3.014 0-4.422.616-4.422 1.826v.088c0 .814.77 1.408 1.914 1.408Zm15.684 2.178c-1.65 0-3.08-.638-4.048-1.716a7.056 7.056 0 0 1-.33 1.518h-2.156V12.16h2.728v5.698c.946-.946 2.266-1.496 3.806-1.496h.11c3.168 0 5.478 2.376 5.478 5.632v.572c0 3.256-2.31 5.632-5.478 5.632h-.11Zm-.616-2.178h.176c1.892 0 3.19-1.452 3.19-3.498v-.484c0-2.046-1.298-3.498-3.19-3.498h-.176c-1.892 0-3.19 1.452-3.19 3.498v.484c0 2.046 1.298 3.498 3.19 3.498Zm9.019 1.98V12.6h5.874c3.036 0 5.126 1.562 5.126 3.85v.154c0 1.32-.572 2.376-1.848 3.19 1.694.704 2.618 2.09 2.618 3.784v.132c0 2.596-2.068 4.29-5.258 4.29h-6.512Zm2.772-8.932h3.036c1.474 0 2.354-.792 2.354-1.98v-.132c0-1.144-.836-1.87-2.31-1.87h-3.08v3.982Zm0 6.446h3.586c1.562 0 2.53-.792 2.53-2.046v-.11c0-1.298-.99-2.112-2.574-2.112h-3.542v4.268Zm15.489 2.706c-2.618 0-4.048-1.562-4.048-4.334V16.56h2.728v6.754c0 1.628.704 2.53 2.222 2.53h.044c1.804 0 2.992-1.21 2.992-3.146V16.56h2.728V28h-2.156a7.188 7.188 0 0 1-.33-1.716 5.313 5.313 0 0 1-4.136 1.936h-.044Zm11.306-13.442c-.946 0-1.606-.594-1.606-1.452s.66-1.496 1.606-1.496c.968 0 1.65.638 1.65 1.496s-.682 1.452-1.65 1.452ZM153.341 28V16.56h2.728V28h-2.728Zm6.23 0V12.16h2.728V28h-2.728Zm10.877.198c-3.19 0-5.478-2.376-5.478-5.764v-.308c0-3.388 2.288-5.764 5.478-5.764h.11c1.54 0 2.86.55 3.806 1.518v-5.72h2.728V28h-2.156a7.586 7.586 0 0 1-.33-1.54c-.99 1.1-2.398 1.738-4.048 1.738h-.11Zm.55-2.178h.176c1.892 0 3.19-1.452 3.19-3.63v-.22c0-2.178-1.298-3.63-3.19-3.63h-.176c-1.892 0-3.19 1.452-3.19 3.63v.22c0 2.178 1.298 3.63 3.19 3.63Zm14.606 2.178c-3.476 0-5.896-2.332-5.896-5.698v-.308c0-3.366 2.486-5.83 5.852-5.83h.132c3.168 0 5.456 2.2 5.456 5.28v1.474h-8.734v.022c.198 1.65 1.518 2.772 3.366 2.772h.11c1.408 0 2.684-.638 3.344-1.474l1.518 1.65c-1.078 1.298-3.058 2.112-4.95 2.112h-.198Zm-3.124-6.908h6.072c-.132-1.628-1.298-2.794-2.97-2.794h-.022c-1.584 0-2.772 1.1-3.08 2.794ZM193.818 28V16.56h2.156c.154.44.308 1.122.33 1.628.88-1.012 2.178-1.628 3.762-1.628h.264v2.64a2.022 2.022 0 0 0-.726-.132c-1.98 0-3.058 1.1-3.058 2.86V28h-2.728Z" />
</svg>